<?xml version="1.0" standalone="no"?><!DOCTYPE svg PUBLIC "-//W3C//DTD SVG 1.1//EN" "http://www.w3.org/Graphics/SVG/1.1/DTD/svg11.dtd"><svg width="100%" height="100%" viewBox="0 0 45 45" version="1.1" xmlns="http://www.w3.org/2000/svg" xmlns:xlink="http://www.w3.org/1999/xlink" xml:space="preserve" style="fill-rule:evenodd;clip-rule:evenodd;stroke-linejoin:round;stroke-miterlimit:1.41421;"><g><path id="path22" d="M45,27.5c0,9.32 -10.074,15 -22.5,15c-12.426,0 -22.5,-5.68 -22.5,-15c0,-9.32 10.074,-18.75 22.5,-18.75c12.426,0 22.5,9.43 22.5,18.75" style="fill:#c6e5b3;fill-rule:nonzero;"/><path id="path26" d="M39.694,15.845c1.71,-1.375 2.806,-3.482 2.806,-5.845c0,-4.142 -3.358,-7.5 -7.5,-7.5c-3.576,0 -6.563,2.506 -7.313,5.856c-1.611,-0.604 -3.355,-0.948 -5.187,-0.948c-1.831,0 -3.576,0.344 -5.186,0.948c-0.752,-3.35 -3.738,-5.856 -7.314,-5.856c-4.141,0 -7.5,3.358 -7.5,7.5c0,2.363 1.097,4.47 2.806,5.845c-3.306,3.35 -5.306,7.511 -5.306,11.655c0,9.32 10.074,1.25 22.5,1.25c12.427,0 22.5,8.07 22.5,-1.25c0,-4.144 -1.999,-8.305 -5.306,-11.655" style="fill:#77b255;fill-rule:nonzero;"/><path id="path30" d="M13.75,9.375c0,2.416 -1.959,4.375 -4.375,4.375c-2.416,0 -4.375,-1.959 -4.375,-4.375c0,-2.416 1.959,-4.375 4.375,-4.375c2.416,0 4.375,1.959 4.375,4.375" style="fill:#fff;fill-rule:nonzero;"/><path id="path34" d="M11.25,9.375c0,1.036 -0.839,1.875 -1.875,1.875c-1.036,0 -1.875,-0.839 -1.875,-1.875c0,-1.036 0.839,-1.875 1.875,-1.875c1.036,0 1.875,0.839 1.875,1.875" style="fill:#292f33;fill-rule:nonzero;"/><path id="path38" d="M40,9.375c0,2.416 -1.958,4.375 -4.375,4.375c-2.418,0 -4.375,-1.959 -4.375,-4.375c0,-2.416 1.957,-4.375 4.375,-4.375c2.417,0 4.375,1.959 4.375,4.375" style="fill:#fff;fill-rule:nonzero;"/><path id="path42" d="M37.5,9.375c0,1.036 -0.84,1.875 -1.875,1.875c-1.035,0 -1.875,-0.839 -1.875,-1.875c0,-1.036 0.84,-1.875 1.875,-1.875c1.035,0 1.875,0.839 1.875,1.875" style="fill:#292f33;fill-rule:nonzero;"/><path id="path46" d="M18.75,25c0,0.691 -0.56,1.25 -1.25,1.25c-0.69,0 -1.25,-0.559 -1.25,-1.25c0,-0.691 0.56,-1.25 1.25,-1.25c0.69,0 1.25,0.559 1.25,1.25" style="fill:#5c913b;fill-rule:nonzero;"/><path id="path50" d="M28.75,25c0,0.691 -0.559,1.25 -1.25,1.25c-0.691,0 -1.25,-0.559 -1.25,-1.25c0,-0.691 0.559,-1.25 1.25,-1.25c0.691,0 1.25,0.559 1.25,1.25" style="fill:#5c913b;fill-rule:nonzero;"/></g></svg>